<svg width="1440" height="460" viewBox="0 0 1440 460" fill="none" xmlns="http://www.w3.org/2000/svg">
<g clip-path="url(#clip0_3828_12773)">
<path d="M1183.81 146.809H1252.32V195.106C1252.32 211.675 1238.89 225.106 1222.32 225.106H1183.81V146.809Z" stroke="white"/>
<path d="M1320.83 146.809H1252.32V98.5107C1252.32 81.9422 1265.75 68.5107 1282.32 68.5107H1320.83V146.809Z" stroke="white"/>
<path d="M1320.83 68.5098L1320.83 -0.000867844L1369.13 -0.000869955C1385.7 -0.000870679 1399.13 13.4306 1399.13 29.9991L1399.13 68.5098L1320.83 68.5098Z" stroke="white"/>
<path d="M1477.43 68.5098L1477.43 137.02L1429.13 137.02C1412.56 137.02 1399.13 123.589 1399.13 107.02L1399.13 68.5098L1477.43 68.5098Z" stroke="white"/>
<path d="M1408.91 352.34L1408.91 420.85L1457.21 420.85C1473.78 420.85 1487.21 407.419 1487.21 390.85L1487.21 352.34L1408.91 352.34Z" stroke="white"/>
<path d="M1183.81 381.701H1252.32V333.403C1252.32 316.835 1238.89 303.403 1222.32 303.403H1183.81V381.701Z" stroke="white"/>
<path d="M1115.3 146.809H1183.81V98.5107C1183.81 81.9422 1170.38 68.5107 1153.81 68.5107H1115.3V146.809Z" stroke="white"/>
<path d="M1115.3 381.701H1183.81V429.999C1183.81 446.568 1170.38 459.999 1153.81 459.999H1115.3V381.701Z" stroke="white"/>
<path d="M1115.3 0L1115.3 68.5106L1067 68.5106C1050.43 68.5106 1037 55.0792 1037 38.5106L1037 -9.33693e-07L1115.3 0Z" stroke="white"/>
<path d="M1183.81 225.105H1145.3C1128.73 225.105 1115.3 238.537 1115.3 255.105V273.403C1115.3 289.972 1128.73 303.403 1145.3 303.403H1183.81V225.105Z" stroke="white"/>
<path d="M255.213 146.809H186.703V195.106C186.703 211.675 200.134 225.106 216.703 225.106H255.213V146.809Z" stroke="white"/>
<path d="M118.192 146.809H186.703V98.5107C186.703 81.9422 173.271 68.5107 156.703 68.5107H118.192V146.809Z" stroke="white"/>
<path d="M118.192 68.5098L118.192 -0.000867844L69.894 -0.000869955C53.3255 -0.000870679 39.894 13.4306 39.894 29.9991L39.894 68.5098L118.192 68.5098Z" stroke="white"/>
<path d="M-38.4038 68.5098L-38.4038 137.02L9.89406 137.02C26.4626 137.02 39.8941 123.589 39.8941 107.02L39.8941 68.5098L-38.4038 68.5098Z" stroke="white"/>
<path d="M30.1069 352.34L30.1069 420.85L-18.1909 420.85C-34.7595 420.85 -48.1909 407.419 -48.1909 390.85L-48.1909 352.34L30.1069 352.34Z" stroke="white"/>
<path d="M255.213 381.701H186.703V333.403C186.703 316.835 200.134 303.403 216.703 303.403H255.213V381.701Z" stroke="white"/>
<path d="M323.724 146.809H255.213V98.5107C255.213 81.9422 268.644 68.5107 285.213 68.5107H323.724V146.809Z" stroke="white"/>
<path d="M323.724 381.701H255.213V429.999C255.213 446.568 268.644 459.999 285.213 459.999H323.724V381.701Z" stroke="white"/>
<path d="M323.724 0L323.724 68.5106L372.022 68.5106C388.59 68.5106 402.022 55.0792 402.022 38.5106L402.022 -9.33693e-07L323.724 0Z" stroke="white"/>
<path d="M255.213 225.105H293.724C310.293 225.105 323.724 238.537 323.724 255.105V273.403C323.724 289.972 310.293 303.403 293.724 303.403H255.213V225.105Z" stroke="white"/>
</g>
<defs>
<clipPath id="clip0_3828_12773">
<rect width="1440" height="460" fill="white"/>
</clipPath>
</defs>
</svg>
